PathFileType	4	(X/Y/Z)	C:/Users/beibeiliu/ov580/test_trc\sequence.38_training_dense_right.trc
DataRate	CameraRate	NumFrames	NumMarkers	Units	OrigDataRate	OrigDataStartFrame	OrigNumFrames
120	120	10	19	mm	120	1	79
Frame#	Time	ThumbCMC			ThumbMCP			ThumbIP			ThumbTip			IndexMCP			IndexPIP			IndexTip			MiddleMCP			MiddlePIP			MiddleTip			RingMCP			RingPIP			RingTip			PinkyMCP			PinkyPIP			PinkyTip			BackHand1			BackHand2			BackHand3	
		X0	Y0	Z0	X1	Y1	Z1	X2	Y2	Z2	X3	Y3	Z3	X4	Y4	Z4	X5	Y5	Z5	X6	Y6	Z6	X7	Y7	Z7	X8	Y8	Z8	X9	Y9	Z9	X10	Y10	Z10	X11	Y11	Z11	X12	Y12	Z12	X13	Y13	Z13	X14	Y14	Z14	X15	Y15	Z15	X16	Y16	Z16	X17	Y17	Z17	X18	Y18	Z18	
0	0	144.986	-9.11234	128.272	128.578	-26.4871	101.406	127.078	-35.5159	74.1701	136.48	-43.35	52.3709	180.361	14.2809	65.9042	183.677	3.74776	35.7981	182.479	-9.97129	16.0712	203.178	9.07532	65.3767	202.882	0.991988	35.1061	198.797	-25.062	13.6178	215.574	-0.805879	71.2591	218.725	-8.54084	42.2208	213.271	-28.7769	19.025	223.666	-15.0131	83.3893	228.532	-19.7308	57.6252	228.82	-29.3447	34.0556	207.779	0.0241442	122.974	199.985	-0.893298	153.218	176.154	12.6897	132.889	
1	0.00833333	125.608	-20.2918	123.496	118.536	-43.9052	107.823	117.655	-58.2591	79.5889	121.947	-69.5547	60.5471	151.357	-2.20224	59.9797	153.647	-15.1597	30.9846	159.916	-38.4406	15.2588	170.865	-1.33006	58.3477	173.699	-18.3371	27.2529	174.539	-47.3032	13.2536	187.606	-6.25687	61.991	197.532	-19.0531	39.8688	189.595	-44.5148	19.6712	200.729	-17.1774	78.7186	205.392	-26.4533	52.1522	200.619	-42.0009	31.0264	184.258	1.87577	115.501	179.191	4.74299	145.552	151.485	10.5191	122.878	
2	0.0166667	107.477	-25.0245	131.434	105.523	-52.8706	112.406	101.871	-71.1375	89.6384	110.185	-81.81	70.5954	128.684	-15.5025	58.7533	128.677	-30.249	34.7499	137.71	-55.3484	21.8965	148.017	-14.8774	50.855	149.684	-34.9939	28.082	152.742	-67.8917	19.5778	167.678	-16.3465	60.2654	170.485	-31.5936	38.5078	168.511	-61.1601	25.4622	179.814	-21.8431	74.2036	184.386	-36.009	53.4144	180.852	-54.197	35.6749	164.943	0.60275	109.359	163.925	8.13445	137.445	132.968	7.88977	120.631	
3	0.025	93.6811	-24.4704	134.292	87.8736	-53.5406	124.374	85.5422	-74.3628	100.632	90.2436	-89.8346	83.163	108.451	-22.6759	63.7849	109.197	-45.5941	39.1059	116.724	-71.0155	31.9121	133.409	-24.3327	55.5729	132.57	-49.8427	33.6579	132.066	-81.0526	31.5087	147.866	-26.0256	59.7264	150.468	-48.4852	39.4123	143.92	-76.7436	34.6477	162.589	-30.6093	76.5235	164.297	-46.2728	57.5894	158.206	-72.8266	40.8599	148.295	-1.40323	107.588	150.791	6.52624	138.253	116.595	5.18967	117.378	
4	0.0333333	84.3882	-16.2916	140.128	75.1384	-44.8792	134.297	65.7816	-66.5702	115.898	67.7087	-85.1442	98.5679	97.2988	-26.8007	67.4581	90.9069	-46.9664	49.2129	93.2406	-76.468	45.4627	114.941	-28.6584	64.0505	110.03	-58.345	43.2924	103.428	-87.152	43.9336	133.16	-34.5771	69.9561	127.108	-59.7469	47.7715	117.327	-88.7948	46.7669	150.078	-41.1729	83.5656	143.064	-61.5343	61.0862	132.094	-86.1529	53.6208	142.24	-6.52165	112.83	150.563	4.94578	137.953	117.762	6.80429	123.507	
5	0.0416667	84.8124	-1.98521	143.653	68.8465	-26.2867	140.787	52.9319	-42.9098	129.317	45.5756	-61.6092	113.08	87.6946	-18.2699	73.9074	80.0703	-42.7534	57.0189	64.3701	-67.6157	53.55	108.566	-28.3856	68.687	96.1259	-53.4358	50.5444	77.9949	-78.9788	53.7284	120.651	-37.909	71.49	112.379	-61.0622	55.2861	91.4591	-81.8863	57.5735	137.036	-49.0834	84.872	124.675	-63.7157	69.7122	104.135	-89.5684	63.0546	144.038	-14.3138	112.755	150.262	-0.790008	136.997	121.067	8.82309	121.626	
6	0.05	94.5722	16.0731	146.825	66.2076	3.67287	146.013	42.3922	-8.12331	132.458	29.3761	-23.2721	119.977	88.8412	-3.37809	77.2747	68.3321	-19.3036	60.6727	53.1822	-43.391	59.6199	101.783	-17.0264	71.1424	81.1898	-36.4371	55.6594	55.4687	-56.9117	60.0451	114.251	-35.4476	75.4704	95.0433	-52.7813	61.3845	69.0831	-66.7875	64.3699	122.803	-45.661	92.6055	104.109	-62.6039	75.6067	76.0876	-74.6954	72.6461	142.743	-12.4789	117.604	153.325	-3.02824	141.509	128.461	15.0179	124.547	
7	0.0583333	110.354	33.9742	151.241	77.6066	31.5394	146.163	52.6052	27.9151	133.189	33.3974	18.7058	118.818	95.6882	14.7879	77.5903	70.4574	1.95083	63.2733	45.0489	-9.72843	59.9381	101.059	-7.4359	72.7563	74.4281	-15.8731	58.5931	41.0481	-27.6328	63.0224	105.428	-27.6219	78.7602	80.8135	-37.0259	65.4806	52.709	-36.0557	67.0989	111.648	-39.0101	97.0517	90.4642	-45.3653	80.7785	59.1465	-50.2828	74.8965	140.877	-14.3023	115.976	157.218	-9.02904	145.34	141.094	19.6226	128.124	
8	0.0666667	126.161	37.6239	145.387	97.2603	50.0118	144.098	74.6657	53.0809	130.866	53.0531	52.1406	117.308	107.444	22.4654	76.7012	83.0841	22.5119	61.2956	58.0706	18.1786	58.3531	106.505	0.883795	73.6288	75.5615	2.24605	58.3585	48.9444	5.64163	59.6802	105.129	-15.5458	82.2457	79.2639	-16.6228	67.002	46.6673	-8.66711	66.7221	102.358	-31.7325	96.3906	79.9015	-28.0037	81.1663	53.223	-26.9297	75.4342	139.892	-21.6831	119.127	153.834	-20.5151	144.96	151.349	11.0424	129.796	
9	0.075	146.012	35.6489	148.111	117.692	54.1656	140.678	98.675	64.6103	126.036	77.8012	67.4407	108.92	123.168	20.419	75.4111	104.211	30.5456	60.24	73.3753	35.5832	55.4946	115.92	5.19439	69.8959	87.7207	12.7116	56.0895	62.628	25.1165	55.2455	108.057	-13.751	81.6531	84.9152	-5.8736	65.4445	58.2955	10.4549	62.496	99.3985	-28.8681	95.7981	80.9896	-19.4444	79.4809	59.9192	-6.72601	68.2223	139.837	-22.4346	123.293	150.08	-29.1961	146.435	160.258	-2.16663	131.012	
